<svg width="360" height="1140" viewBox="0 0 360 1140" fill="none" xmlns="http://www.w3.org/2000/svg">
<g opacity="0.5">
<path d="M812.517 349.734C761.23 321.065 678.287 372.56 643.485 465.112C608.683 557.663 456.322 533.57 415.717 528.066C375.112 522.561 326.593 554.986 306.874 625.496C287.155 696.007 205.155 709.875 129.617 733.447C54.0795 757.018 -64.2178 834.188 -93.5489 840.225" stroke="url(#paint0_linear_760_4737)" stroke-width="3" stroke-linecap="round"/>
<path d="M-16.268 880.701C-18.3296 822.285 186.458 841.928 182.688 715.005C178.918 588.082 296.812 584.119 371.55 608.962C446.287 633.805 547.358 410.068 608.504 462.641C669.651 515.214 754.698 365.967 838.777 306.924" stroke="url(#paint1_linear_760_4737)" stroke-width="4" stroke-linecap="round"/>
</g>
<defs>
<linearGradient id="paint0_linear_760_4737" x1="-16.9756" y1="1000.29" x2="770.986" y2="247.207" gradientUnits="userSpaceOnUse">
<stop stop-color="#1F94F3"/>
<stop offset="0.16984" stop-color="#795549"/>
<stop offset="0.375429" stop-color="#4AAE4E"/>
<stop offset="0.517746" stop-color="#F34334"/>
<stop offset="0.67022" stop-color="#9A26AF"/>
<stop offset="0.829093" stop-color="#01BBD4"/>
<stop offset="1" stop-color="#FD5621"/>
</linearGradient>
<linearGradient id="paint1_linear_760_4737" x1="946.712" y1="448.04" x2="-84.8991" y2="808.268" gradientUnits="userSpaceOnUse">
<stop stop-color="#F34334"/>
<stop offset="0.16984" stop-color="#FFE93B"/>
<stop offset="0.517746" stop-color="#5F7C8A"/>
<stop offset="0.829093" stop-color="#9A26AF"/>
<stop offset="1" stop-color="#019587"/>
</linearGradient>
</defs>
</svg>
