<svg width="120" height="120" viewBox="0 0 120 120" fill="none" xmlns="http://www.w3.org/2000/svg">
<g clip-path="url(#clip0_726_672)">
<path d="M119.88 110.606V41.1942C119.88 39.8683 118.806 38.7942 117.48 38.7942C116.156 38.7942 115.08 39.8683 115.08 41.1942V110.606C115.077 113.011 113.127 114.96 110.721 114.962H9.27954C6.87286 114.96 4.92286 113.011 4.92012 110.606V41.1942C4.92012 39.8683 3.84468 38.7942 2.52012 38.7942C1.19422 38.7942 0.120117 39.8683 0.120117 41.1942V110.606C0.122796 113.034 1.08841 115.361 2.80537 117.078C4.52233 118.795 6.85143 119.76 9.27954 119.762H110.721C113.149 119.76 115.478 118.795 117.195 117.078C118.912 115.361 119.877 113.034 119.88 110.606Z" fill="#524EB7"/>
<path d="M119.88 10.2C119.878 7.55889 118.828 5.02761 116.961 3.15938C115.094 1.29242 112.561 0.24242 109.921 0.239746H10.0814C7.44167 0.242425 4.90905 1.29242 3.0422 3.15938C1.17524 5.02768 0.125233 7.55892 0.122559 10.2V33.1995C0.122559 33.837 0.374348 34.4464 0.824355 34.8977C1.27435 35.3477 1.88508 35.5995 2.52256 35.5995H117.483H117.481C118.119 35.5995 118.729 35.3477 119.179 34.8977C119.629 34.4464 119.881 33.837 119.881 33.1995L119.88 10.2ZM115.08 30.8009L4.92023 30.7995V10.2C4.92157 8.83123 5.4653 7.52007 6.43363 6.55301C7.40059 5.58605 8.71175 5.04094 10.0792 5.03961H109.919C111.287 5.04095 112.598 5.58468 113.565 6.55301C114.533 7.51997 115.077 8.83113 115.078 10.2L115.08 30.8009Z" fill="#524EB7"/>
<path d="M64.1144 49.7041H101.729C103.055 49.7041 104.129 48.6286 104.129 47.3041C104.129 45.9782 103.055 44.9041 101.729 44.9041H64.1144C62.7885 44.9041 61.7144 45.9782 61.7144 47.3041C61.7144 48.6286 62.7885 49.7041 64.1144 49.7041Z" fill="#524EB7"/>
<path d="M14.9796 80.9726H52.5944C53.9203 80.9726 54.9944 79.8985 54.9944 78.5726C54.9944 77.2467 53.9203 76.1726 52.5944 76.1726H14.9796C13.6537 76.1726 12.5796 77.2467 12.5796 78.5726C12.5796 79.8985 13.6537 80.9726 14.9796 80.9726Z" fill="#524EB7"/>
<path d="M14.9796 91.0834H52.5944C53.9203 91.0834 54.9944 90.008 54.9944 88.6834C54.9944 87.3575 53.9203 86.2834 52.5944 86.2834H14.9796C13.6537 86.2834 12.5796 87.3575 12.5796 88.6834C12.5796 90.008 13.6537 91.0834 14.9796 91.0834Z" fill="#524EB7"/>
<path d="M14.9796 101.191H52.5944C53.9203 101.191 54.9944 100.117 54.9944 98.7906C54.9944 97.4661 53.9203 96.3906 52.5944 96.3906H14.9796C13.6537 96.3906 12.5796 97.4661 12.5796 98.7906C12.5796 100.117 13.6537 101.191 14.9796 101.191Z" fill="#524EB7"/>
<path d="M64.1144 60.2846H101.729C103.055 60.2846 104.129 59.2092 104.129 57.8846C104.129 56.5587 103.055 55.4846 101.729 55.4846H64.1144C62.7885 55.4846 61.7144 56.5587 61.7144 57.8846C61.7144 59.2092 62.7885 60.2846 64.1144 60.2846Z" fill="#524EB7"/>
<path d="M61.7144 98.7909C61.7144 99.4271 61.9661 100.038 62.4162 100.488C62.8675 100.938 63.4769 101.191 64.1144 101.191H101.729C102.365 101.191 102.976 100.938 103.426 100.488C103.876 100.038 104.129 99.4271 104.129 98.7909V69.1698C104.129 68.5336 103.876 67.9229 103.426 67.4729C102.976 67.0229 102.365 66.7698 101.729 66.7698H64.1144C63.4768 66.7698 62.8675 67.0229 62.4162 67.4729C61.9662 67.9229 61.7144 68.5336 61.7144 69.1698V98.7909ZM66.5144 71.5698H99.3282V96.3909H66.5144V71.5698Z" fill="#524EB7"/>
<path d="M14.9796 68.9829H52.5944C53.2306 68.9829 53.8413 68.7311 54.2913 68.2811C54.7413 67.8298 54.9944 67.2204 54.9944 66.5829V45.1893C54.9944 44.5531 54.7413 43.9424 54.2913 43.4924C53.8413 43.0424 53.2306 42.7893 52.5944 42.7893H14.9796C14.3421 42.7893 13.7327 43.0424 13.2814 43.4924C12.8314 43.9424 12.5796 44.5532 12.5796 45.1893V66.5829C12.5796 67.2204 12.8314 67.8298 13.2814 68.2811C13.7327 68.7311 14.3421 68.9829 14.9796 68.9829ZM17.3796 47.5893H50.1934V64.1829H17.3796V47.5893Z" fill="#524EB7"/>
<path d="M47.4792 16.2822H16.4479C15.1233 16.2822 14.0479 17.3563 14.0479 18.6822C14.0479 20.0068 15.1233 21.0822 16.4479 21.0822H47.4792C48.8051 21.0822 49.8792 20.0068 49.8792 18.6822C49.8792 17.3563 48.8051 16.2822 47.4792 16.2822Z" fill="#524EB7"/>
<path d="M65.9351 16.2822H58.2945C56.97 16.2822 55.8945 17.3563 55.8945 18.6822C55.8945 20.0068 56.97 21.0822 58.2945 21.0822H65.9351C67.261 21.0822 68.3351 20.0068 68.3351 18.6822C68.3351 17.3563 67.261 16.2822 65.9351 16.2822Z" fill="#524EB7"/>
<path d="M84.7405 16.2822H77.1026C75.7767 16.2822 74.7026 17.3563 74.7026 18.6822C74.7026 20.0068 75.7767 21.0822 77.1026 21.0822H84.7418H84.7405C86.0664 21.0822 87.1405 20.0068 87.1405 18.6822C87.1405 17.3563 86.0664 16.2822 84.7405 16.2822H84.7405Z" fill="#524EB7"/>
<path d="M103.55 16.2822H95.9093C94.5834 16.2822 93.5093 17.3563 93.5093 18.6822C93.5093 20.0068 94.5834 21.0822 95.9093 21.0822H103.55C104.874 21.0822 105.95 20.0068 105.95 18.6822C105.95 17.3563 104.874 16.2822 103.55 16.2822Z" fill="#524EB7"/>
</g>
<defs>
<clipPath id="clip0_726_672">
<rect width="120" height="120" fill="white"/>
</clipPath>
</defs>
</svg>
