<svg width="120" height="120" viewBox="0 0 120 120" fill="none" xmlns="http://www.w3.org/2000/svg">
<g clip-path="url(#clip0_726_583)">
<path d="M112.119 70.5449L112.119 70.5446C111.819 70.0089 111.252 69.6751 110.638 69.6751H100.6V64.4615H110.638C111.574 64.4615 112.335 63.703 112.335 62.7645V1.76222C112.335 0.823785 111.575 0.0651367 110.638 0.0651367H1.68361C0.747553 0.0651367 -0.0134766 0.82369 -0.0134766 1.76222V62.7645C-0.0134766 63.7029 0.746391 64.4615 1.68361 64.4615H11.721V69.6751H1.68361C0.747553 69.6751 -0.0134766 70.4336 -0.0134766 71.3722V99.2421C-0.0134766 100.181 0.746391 100.939 1.68361 100.939H11.721V118.501C11.721 119.439 12.4809 120.198 13.4181 120.198C14.3542 120.198 15.1152 119.439 15.1152 118.501L15.1142 100.938H21.2663V118.501C21.2663 119.439 22.0262 120.198 22.9634 120.198C23.8995 120.198 24.6605 119.439 24.6605 118.501L24.6595 100.938H87.659V118.501C87.659 119.439 88.4189 120.198 89.3561 120.198C90.2921 120.198 91.0532 119.439 91.0532 118.501L91.0521 100.938H97.2043L97.2053 118.501C97.2053 119.439 97.9652 120.198 98.9024 120.198C99.8385 120.198 100.599 119.439 100.599 118.501L100.598 100.938H110.636C111.25 100.938 111.817 100.605 112.117 100.068L112.118 100.068L119.902 86.1312L119.902 86.1311C120.188 85.6174 120.188 84.9915 119.902 84.477L119.902 84.4767L112.119 70.5449ZM97.2064 69.6761H91.0542V64.4626H97.2064V69.6761ZM87.6601 64.4615V69.675L24.6605 69.6761V64.4626L87.6601 64.4615ZM3.37856 3.45928H108.939V61.0682H3.37856V3.45928ZM15.1129 64.4615H21.2651V69.675H15.1129V64.4615ZM116.478 85.3085L109.641 97.5466H3.37749V73.0694H109.641L116.478 85.3085Z" fill="#524EB7" stroke="#524EB7" stroke-width="0.4"/>
<path d="M11.832 27.0891L11.832 27.0892C11.0002 31.066 11.1835 35.0154 12.1597 38.6961C12.1637 38.7191 12.169 38.7386 12.1725 38.7515L12.1752 38.761C12.1783 38.772 12.1795 38.7764 12.1806 38.7818L12.1803 38.7819L12.1834 38.7933C14.5739 47.6612 21.7091 54.9216 31.281 56.9676L31.281 56.9678L31.2844 56.9684C31.2891 56.9695 31.2965 56.9713 31.306 56.9729C31.3117 56.9743 31.319 56.9763 31.3311 56.9798L31.3349 56.9809C31.3479 56.9847 31.3669 56.9903 31.387 56.995L31.387 56.995L31.3916 56.996C33.1306 57.359 34.8804 57.5389 36.6168 57.5389C41.477 57.5389 46.2348 56.1306 50.3952 53.4119L50.3953 53.4118C56.0428 49.7173 59.9157 44.0447 61.2984 37.4388L61.2984 37.4387C64.1492 23.8006 55.3752 10.3837 41.7392 7.53076L41.5487 7.49092L41.5483 7.49264C35.0033 6.17483 28.3273 7.45697 22.7351 11.1161C17.0876 14.8106 13.2147 20.4832 11.832 27.0891ZM50.1812 21.9826C49.3956 18.1091 48.0374 14.916 46.8214 12.6335C51.3434 14.9987 54.8603 18.8225 56.8626 23.3812L50.1812 21.9826ZM49.7534 36.6052L57.8735 38.3037C57.1495 40.8799 55.9825 43.2621 54.4282 45.3763L46.7572 43.7718C47.999 41.6652 49.04 39.281 49.7534 36.6052ZM14.9533 37.1166C14.3832 34.5938 14.253 31.9421 14.6238 29.2551L22.7406 30.9535C22.322 33.6908 22.3205 36.2933 22.6131 38.7201L14.9533 37.1166ZM23.3642 27.9226L15.2549 26.2254C16.04 23.4393 17.3381 20.8761 19.0854 18.6384L26.4495 20.1792C25.1907 22.4265 24.117 25.0095 23.3642 27.9226ZM47.4458 24.5714C47.7959 27.1213 47.8328 29.9372 47.3698 32.9445L38.3975 31.0679L40.0789 23.0303L47.4458 24.5714ZM25.8524 39.3962C25.4507 36.973 25.357 34.3475 25.7577 31.585L34.7358 33.4623L33.1744 40.9277L25.8524 39.3962ZM28.2054 17.3862L21.5197 15.9875C22.4003 15.1732 23.3466 14.4209 24.368 13.7476L24.4299 13.7071C27.6517 11.5998 31.2827 10.4146 35.0196 10.1622C32.9947 11.7665 30.4738 14.1485 28.2054 17.3862ZM12.0217 27.1288L12.0217 27.1288L12.0217 27.1288ZM23.1857 42.0012C24.2111 46.3782 26.0419 50.0077 27.6296 52.5405C22.2489 50.1697 18.1299 45.7834 16.0041 40.4986L23.1857 42.0012ZM52.1239 48.0536C51.1093 49.0523 49.9997 49.9656 48.7886 50.7668L48.7027 50.823C45.0526 53.2117 40.8776 54.4298 36.6145 54.4286C39.0866 52.7447 42.2236 50.1511 44.9228 46.5467L52.1239 48.0536ZM31.2806 56.9674C31.2803 56.9673 31.2803 56.9673 31.2807 56.9674L31.2806 56.9674ZM40.712 20.0016L42.4988 11.4614C43.509 12.9571 45.596 16.4598 46.8083 21.2758L40.712 20.0016ZM39.4744 10.8033L37.6833 19.3684L31.5763 18.0911C34.6235 14.147 37.9577 11.7644 39.4744 10.8033ZM37.0502 22.3962L35.3688 30.4338L26.389 28.5561C27.1695 25.6159 28.3298 23.0502 29.6697 20.8531L37.0502 22.3962ZM32.5391 43.9574L30.8913 51.8361C29.518 49.7807 27.7404 46.6115 26.6061 42.7165L32.5391 43.9574ZM33.921 52.4639L35.5678 44.5916L41.4923 45.8316C38.8884 48.9481 36.0002 51.1333 33.921 52.4639ZM36.2009 41.563L37.7622 34.0976L46.7234 35.9727C45.9827 38.6595 44.8676 41.0418 43.5323 43.0997L36.2009 41.563ZM58.0242 26.7849C58.7212 29.4934 58.9081 32.3644 58.5062 35.2761L50.4 33.579C50.8776 30.6076 50.9274 27.8114 50.6725 25.2471L58.0242 26.7849Z" fill="#524EB7" stroke="#524EB7" stroke-width="0.4"/>
<path d="M100.843 25.2559C100.842 15.1913 92.7284 6.98996 82.7004 6.84537L82.7011 6.84297H82.431C72.2796 6.84297 64.0207 15.1016 64.0207 25.2533C64.0207 32.1399 68.1608 39.9426 72.3575 46.0908C76.5608 52.2487 80.851 56.7895 81.2034 57.1603L81.2034 57.1604C81.5229 57.4964 81.9666 57.6882 82.432 57.6882L82.4466 57.6882L82.4487 57.6882C82.9181 57.6835 83.3665 57.4849 83.6839 57.139L83.6841 57.1388C84.0362 56.754 88.3204 52.0425 92.5178 45.806C94.6165 42.6877 96.6962 39.1843 98.2517 35.6467C99.8064 32.1113 100.843 28.5288 100.843 25.2559ZM91.2286 41.5396C87.9718 46.7318 84.2823 51.2492 82.409 53.4397C80.5278 51.308 76.8504 46.9264 73.6071 41.7912C70.269 36.5058 67.414 30.4576 67.414 25.2541C67.414 16.9739 74.1511 10.2379 82.4302 10.2379C90.7104 10.2379 97.4464 16.975 97.4464 25.2541V25.2542C97.4479 30.177 94.5804 36.1959 91.2286 41.5396Z" fill="#524EB7" stroke="#524EB7" stroke-width="0.4"/>
<path d="M82.4313 15.0314C78.6899 15.0314 75.6457 18.0755 75.6457 21.8149C75.6457 25.5574 78.6898 28.6004 82.4313 28.6004C86.1727 28.6004 89.2169 25.5563 89.2169 21.8149C89.2169 18.0755 86.1727 15.0314 82.4313 15.0314ZM82.4313 25.2093C80.5603 25.2093 79.039 23.6869 79.039 21.817C79.039 19.9473 80.5613 18.4266 82.4313 18.4266C84.3014 18.4266 85.8235 19.9481 85.8235 21.817C85.8235 23.687 84.3012 25.2093 82.4313 25.2093Z" fill="#524EB7" stroke="#524EB7" stroke-width="0.4"/>
<path d="M98.94 83.6105H13.3819C12.4458 83.6105 11.6848 84.3691 11.6848 85.3076C11.6848 86.2461 12.4446 87.0047 13.3819 87.0047H98.94C99.8761 87.0047 100.637 86.2462 100.637 85.3076C100.637 84.3682 99.8783 83.6105 98.94 83.6105Z" fill="#524EB7" stroke="#524EB7" stroke-width="0.4"/>
</g>
<defs>
<clipPath id="clip0_726_583">
<rect width="120" height="120" fill="white"/>
</clipPath>
</defs>
</svg>
