<svg width="120" height="120" viewBox="0 0 120 120" fill="none" xmlns="http://www.w3.org/2000/svg">
<path d="M110.184 5.95581H9.81626C4.49457 5.95581 0.165527 10.2849 0.165527 15.6065V81.2315C0.165527 86.5532 4.49457 90.8823 9.81626 90.8823H39.5052L35.5812 98.7304C30.8575 99.3534 27.1867 103.363 27.1867 108.254V114.044H92.8117V108.254C92.8117 103.363 89.1409 99.3533 84.4172 98.7304L80.4932 90.8823H110.182C115.504 90.8823 119.833 86.5532 119.833 81.2315V15.6065C119.833 10.2849 115.504 5.95581 110.182 5.95581H110.184ZM88.9523 108.254V110.184H31.0479V108.254C31.0479 105.061 33.6457 102.463 36.8383 102.463H83.1618C86.3544 102.463 88.9523 105.061 88.9523 108.254ZM80.0392 98.6029H39.9605L43.8208 90.8823H76.1767L80.0392 98.6029ZM115.975 81.2315C115.975 84.4241 113.377 87.022 110.185 87.022H9.81714C6.62457 87.022 4.0267 84.4241 4.0267 81.2315V15.6065C4.0267 12.414 6.62457 9.8161 9.81714 9.8161H110.185C113.377 9.8161 115.975 12.414 115.975 15.6065V81.2315Z" fill="#524EB7"/>
<path d="M108.254 13.6765H11.7465C9.61734 13.6765 7.88623 15.4076 7.88623 17.5368V71.5809C7.88623 73.7101 9.61734 75.4412 11.7465 75.4412H108.254C110.383 75.4412 112.114 73.7101 112.114 71.5809V17.5368C112.114 15.4076 110.383 13.6765 108.254 13.6765ZM73.5112 64.9324V58.0692H85.0921V64.9324C82.7949 66.2723 81.2318 68.7349 81.2318 71.5803H77.3715C77.3715 68.7351 75.8085 66.2725 73.5112 64.9324ZM88.9524 67.72H92.8127V63.8597H88.9524V54.2089H69.6509V63.8597H65.7906V67.72H69.6509C71.7801 67.72 73.5112 69.4511 73.5112 71.5803H61.9303V56.7991C61.9303 55.0249 63.1332 53.4852 64.8549 53.0542L77.3715 49.9253V44.3072L76.4125 43.7497C74.5961 42.6915 73.5113 40.8287 73.5113 38.7675V35.3087C73.5113 32.1066 75.8257 29.3984 78.7787 29.1399C80.4409 28.9986 82.0039 29.5294 83.2145 30.6375C84.4071 31.7318 85.0921 33.2896 85.0921 34.907V38.7673C85.0921 40.8284 84.0073 42.6913 82.1909 43.7486L81.2319 44.307V49.926L93.7485 53.0564C95.4701 53.4846 96.6731 55.0253 96.6731 56.7986V71.5798H85.0922C85.0922 69.4506 86.8233 67.7195 88.9525 67.7195L88.9524 67.72ZM100.533 71.5803V56.7991C100.533 53.2498 98.1284 50.1693 94.6851 49.3103L85.0921 46.9114V46.4479C87.497 44.6358 88.9524 41.7844 88.9524 38.7679V34.9076C88.9524 32.2113 87.8115 29.617 85.822 27.7927C83.8342 25.9703 81.1449 25.0561 78.4453 25.2948C73.5132 25.7222 69.6512 30.121 69.6512 35.309V38.7679C69.6512 41.7846 71.1065 44.6375 73.5115 46.4479V46.9114L63.9185 49.3103C60.4753 50.1694 58.0703 53.2498 58.0703 56.7991V71.5803H11.7467V17.5361H108.254L108.256 71.5803H100.533Z" fill="#524EB7"/>
<path d="M104.394 79.3015H108.254V83.1618H104.394V79.3015Z" fill="#524EB7"/>
<path d="M96.6729 79.3015H100.533V83.1618H96.6729V79.3015Z" fill="#524EB7"/>
<path d="M88.9521 79.3015H92.8124V83.1618H88.9521V79.3015Z" fill="#524EB7"/>
<path d="M11.7466 79.3015H27.1878V83.1618H11.7466V79.3015Z" fill="#524EB7"/>
<path d="M31.0479 79.3015H34.9081V83.1618H31.0479V79.3015Z" fill="#524EB7"/>
<path d="M19.4668 67.7204H38.7683V48.4189H19.4668V67.7204ZM23.3271 52.2792H34.908V63.8601H23.3271V52.2792Z" fill="#524EB7"/>
<path d="M43.1934 20.032L37.969 25.2573H19.4663V44.5587H38.7678V29.9163L45.9232 22.7609L43.1934 20.032ZM34.9077 40.6985H23.3268V29.1176H34.109L29.1173 34.1093L26.622 31.614L23.8931 34.3429L29.1175 39.5673L34.9079 33.7768L34.9077 40.6985Z" fill="#524EB7"/>
<path d="M100.533 42.6287H104.394V46.489H100.533V42.6287Z" fill="#524EB7"/>
<path d="M96.6729 25.2573H100.533V38.7683H104.393V21.397H96.6729V25.2573Z" fill="#524EB7"/>
</svg>
