<svg width="122" height="122" viewBox="0 0 122 122" fill="none" xmlns="http://www.w3.org/2000/svg">
<path d="M117.862 86.2124V82.7753H117.662M117.862 86.2124L117.662 82.5753V82.7753M117.862 86.2124C117.866 89.5826 115.168 92.3237 111.851 92.3249L117.862 86.2124ZM117.662 82.7753H4.58348V86.2124C4.58348 89.4758 7.19774 92.1249 10.4022 92.1249H47.1532H47.1647H75.088H75.0974H111.849C115.053 92.1249 117.666 89.4759 117.662 86.2127V86.2124V82.7753ZM117.67 19.8002V79.2367H4.59164V19.8029C4.59164 16.5416 7.20481 13.8925 10.4103 13.8925H28.0819C29.0555 13.8925 29.8458 13.0985 29.8458 12.1213C29.8458 11.1441 29.0555 10.3501 28.0819 10.3501H10.4103C5.25735 10.3501 1.06709 14.5938 1.06709 19.8051V86.2193C1.06709 91.4295 5.25628 95.6732 10.4103 95.6732H44.994L41.6866 111.631L41.6862 111.631L41.6852 111.638L41.6841 111.643C41.6835 111.645 41.6827 111.649 41.6819 111.653L41.2376 113.797L41.4335 113.838L41.2376 113.797C40.8571 115.635 41.2619 117.471 42.3585 118.827L42.3586 118.828C43.4477 120.173 45.1344 120.941 46.9781 120.941H75.281C77.1276 120.941 78.8166 120.174 79.9039 118.826C81.0015 117.468 81.4041 115.633 81.0214 113.797L77.265 95.6742H111.849C117.004 95.6742 121.193 91.4326 121.193 86.2203V19.806C121.194 14.7291 117.224 10.5747 112.258 10.3578L112.267 10.3464H111.852H94.1824C93.2087 10.3464 92.4195 11.1404 92.4195 12.1165C92.4195 13.0955 93.2084 13.8898 94.1824 13.8898H111.852C115.058 13.8898 117.67 16.5379 117.67 19.8002ZM77.1768 116.571L77.1663 116.584C76.7516 117.096 76.09 117.39 75.2807 117.39H46.9778C46.1704 117.39 45.5069 117.096 45.0934 116.585L45.0933 116.584C44.6719 116.064 44.519 115.334 44.691 114.512L44.6911 114.511L44.8451 113.764H77.4139L77.5697 114.513L77.5697 114.513C77.7393 115.325 77.5903 116.052 77.1768 116.571ZM73.6662 95.6663L76.6793 110.218H45.5778L48.5935 95.6663H51.9734C52.8343 99.9842 56.6231 103.262 61.1309 103.262C65.6364 103.262 69.4275 99.9842 70.2885 95.6663H73.6662ZM61.1315 99.7189C58.5745 99.7189 56.3881 98.0172 55.6163 95.6663H66.6433C65.8706 98.0164 63.6841 99.7189 61.1315 99.7189Z" fill="#524EB7" stroke="#524EB7" stroke-width="0.4"/>
<path d="M61.1286 71.6125C80.5443 71.6125 96.3424 55.7273 96.3424 36.2062C96.3424 16.6851 80.5462 0.8 61.1286 0.8C41.7107 0.8 25.9147 16.6851 25.9147 36.2062C25.9147 55.7273 41.711 71.6125 61.1286 71.6125ZM61.1286 4.34299C78.5999 4.34299 92.8154 18.6364 92.8154 36.2062C92.8154 53.7756 78.5993 68.0695 61.1286 68.0695C43.6578 68.0695 29.4417 53.7761 29.4417 36.2062C29.4417 18.6348 43.6578 4.34299 61.1286 4.34299Z" fill="#524EB7" stroke="#524EB7" stroke-width="0.4"/>
<path d="M53.5347 44.3926L53.309 43.2799H58.2486H58.2497H58.2528H70.4089H70.412H70.4131H77.2574C78.0922 43.2799 78.8142 42.6884 78.9847 41.8678L78.9848 41.8674L82.313 25.7158L82.3131 25.7152C82.4188 25.1937 82.2875 24.6517 81.9522 24.2386C81.6196 23.8248 81.1154 23.5848 80.5845 23.5848H49.3263L48.2814 18.4149C48.2814 18.4149 48.2814 18.4148 48.2814 18.4148C48.1165 17.5944 47.4017 17.0044 46.5659 16.9973L46.5655 16.9973L41.6733 16.966V16.966H41.672H41.6616C40.6912 16.966 39.9047 17.7544 39.8977 18.7274H39.8977L39.8977 18.7281C39.8941 19.6987 40.6785 20.4995 41.6533 20.5042L41.6631 20.5043L41.6642 20.5042L45.1134 20.5271L46.0765 25.2905C46.0717 25.4267 46.0804 25.5665 46.1096 25.7081C46.1096 25.7083 46.1096 25.7084 46.1097 25.7086L49.375 41.8584C49.375 41.8586 49.375 41.8588 49.3751 41.859C49.4024 41.9976 49.4484 42.1242 49.5032 42.2415L50.3659 46.5155L50.366 46.5159C50.534 47.3397 51.2549 47.935 52.0935 47.935H77.1492C78.1239 47.935 78.9131 47.141 78.9131 46.1638C78.9131 45.1867 78.1239 44.3926 77.1492 44.3926H53.5347ZM66.0937 39.7363V27.126H70.5633L68.8674 39.7363H66.0937ZM62.567 39.7363H59.7933L58.0994 27.126H62.568L62.567 39.7363ZM78.4226 27.126L75.8241 39.7363H72.4281L74.122 27.126H78.4226ZM52.592 39.7352L50.0451 27.125H54.5398L56.2337 39.7352H52.592Z" fill="#524EB7" stroke="#524EB7" stroke-width="0.4"/>
<path d="M60.8403 51.7138C60.8414 49.654 59.1731 47.9768 57.122 47.9768C55.0718 47.9768 53.406 49.6543 53.406 51.7137C53.406 53.7732 55.0718 55.4506 57.122 55.4506C59.1732 55.4506 60.8402 53.7733 60.8403 51.7138ZM60.8403 51.7138L60.6403 51.7137H60.8403C60.8403 51.7137 60.8403 51.7138 60.8403 51.7138ZM57.122 51.9052C57.0195 51.9052 56.9316 51.8183 56.9316 51.7116C56.9316 51.6035 57.0188 51.518 57.122 51.518C57.2294 51.518 57.3156 51.6046 57.3156 51.7116C57.3156 51.819 57.2301 51.9052 57.122 51.9052Z" fill="#524EB7" stroke="#524EB7" stroke-width="0.4"/>
<path d="M77.0966 51.7137V51.7136C77.0955 49.6541 75.4286 47.9768 73.3794 47.9768C71.3282 47.9768 69.6623 49.6542 69.6623 51.7137C69.6623 53.7723 71.3283 55.4487 73.3794 55.4487C75.4295 55.4487 77.0966 53.7714 77.0966 51.7137ZM73.3794 51.9042C73.2731 51.9042 73.1869 51.8176 73.1869 51.7116C73.1869 51.6042 73.2734 51.518 73.3794 51.518C73.4825 51.518 73.5696 51.6032 73.5699 51.7111C73.5691 51.8196 73.4816 51.9042 73.3794 51.9042Z" fill="#524EB7" stroke="#524EB7" stroke-width="0.4"/>
</svg>
