<svg width="1920" height="618" viewBox="0 0 1920 618" fill="none" xmlns="http://www.w3.org/2000/svg">
<path d="M2013.43 724.794C1921.1 810.616 1720.74 744.57 1599.67 568.354C1478.6 392.138 1172.45 519.251 1090.38 551.209C1008.31 583.168 889.904 539.714 811.881 402.045C733.859 264.375 555.094 276.616 384.786 265.292C214.479 253.968 -73.228 151.972 -137.733 154.097" stroke="url(#paint0_linear_731_562)" stroke-width="3" stroke-linecap="round"/>
<path d="M-89.5832 364.4C-32.9281 251.79 177.89 243.906 352.759 366.913C527.628 489.92 770.327 264.124 836.125 205.579C901.922 147.034 1028.05 146.522 1149.14 248.391C1270.23 350.26 1433.53 276.516 1597.12 227.806C1760.71 179.096 2065.92 174.485 2125.65 150.023" stroke="url(#paint1_linear_731_562)" stroke-width="3" stroke-linecap="round"/>
<path d="M-95.803 72.0461C-69.65 195.362 348.491 51.1767 406.798 318.752C465.106 586.328 713.791 535.29 857.174 445.673C1000.56 356.056 1328.67 773.521 1429.16 632.7C1529.65 491.879 1785.39 761.483 1992.07 842.758" stroke="url(#paint2_linear_731_562)" stroke-width="4" stroke-linecap="round"/>
<path d="M2036.97 314.861C1969.5 208.379 1627.77 489.188 1479.91 258.681C1332.05 28.1749 1116.72 162.643 1013.53 296.592C910.344 430.542 457.365 153.516 412.219 320.523C367.074 487.53 33.4376 323.895 -188.603 319.703" stroke="url(#paint3_linear_731_562)" stroke-width="4" stroke-linecap="round"/>
<defs>
<linearGradient id="paint0_linear_731_562" x1="-61.0328" y1="-219.502" x2="1983.53" y2="954.189" gradientUnits="userSpaceOnUse">
<stop stop-color="#1F94F3"/>
<stop offset="0.16984" stop-color="#795549"/>
<stop offset="0.375429" stop-color="#4AAE4E"/>
<stop offset="0.517746" stop-color="#F34334"/>
<stop offset="0.67022" stop-color="#9A26AF"/>
<stop offset="0.829093" stop-color="#01BBD4"/>
<stop offset="1" stop-color="#FD5621"/>
</linearGradient>
<linearGradient id="paint1_linear_731_562" x1="2183.89" y1="526.941" x2="-141.467" y2="138.958" gradientUnits="userSpaceOnUse">
<stop stop-color="#1F94F3"/>
<stop offset="0.16984" stop-color="#795549"/>
<stop offset="0.375429" stop-color="#4AAE4E"/>
<stop offset="0.517746" stop-color="#F34334"/>
<stop offset="0.67022" stop-color="#9A26AF"/>
<stop offset="0.829093" stop-color="#01BBD4"/>
<stop offset="1" stop-color="#FD5621"/>
</linearGradient>
<linearGradient id="paint2_linear_731_562" x1="2144.26" y1="493.047" x2="-203.313" y2="276.881" gradientUnits="userSpaceOnUse">
<stop stop-color="#F34334"/>
<stop offset="0.16984" stop-color="#FFE93B"/>
<stop offset="0.517746" stop-color="#5F7C8A"/>
<stop offset="0.829093" stop-color="#9A26AF"/>
<stop offset="1" stop-color="#019587"/>
</linearGradient>
<linearGradient id="paint3_linear_731_562" x1="-209.443" y1="700.523" x2="2066.39" y2="85.4056" gradientUnits="userSpaceOnUse">
<stop stop-color="#F34334"/>
<stop offset="0.16984" stop-color="#FFE93B"/>
<stop offset="0.517746" stop-color="#5F7C8A"/>
<stop offset="0.829093" stop-color="#9A26AF"/>
<stop offset="1" stop-color="#019587"/>
</linearGradient>
</defs>
</svg>
