<svg width="122" height="122" viewBox="0 0 122 122" fill="none" xmlns="http://www.w3.org/2000/svg">
<path d="M2.94748 120.92H119.052C120.083 120.92 120.919 120.084 120.919 119.053V2.94846C120.919 1.91788 120.083 1.08164 119.052 1.08164H2.94748C1.91691 1.08164 1.08066 1.91786 1.08066 2.94846V119.053C1.08066 120.084 1.91688 120.92 2.94748 120.92ZM117.184 4.81481V117.186H4.81286V4.81481H117.184Z" fill="#524EB7" stroke="#524EB7" stroke-width="0.2"/>
<path d="M2.94748 25.0055H119.052C120.083 25.0055 120.919 24.1692 120.919 23.1386C120.919 22.1081 120.083 21.2718 119.052 21.2718H2.94748C1.91691 21.2718 1.08066 22.1081 1.08066 23.1386C1.08066 24.1692 1.91688 25.0055 2.94748 25.0055Z" fill="#524EB7" stroke="#524EB7" stroke-width="0.2"/>
<path d="M36.4161 23.1386C36.4161 24.1691 37.2523 25.0054 38.2829 25.0054C39.3135 25.0054 40.1497 24.1692 40.1497 23.1386V2.94626C40.1497 1.91568 39.3135 1.07944 38.2829 1.07944C37.2524 1.07944 36.4161 1.91566 36.4161 2.94626V23.1386Z" fill="#524EB7" stroke="#524EB7" stroke-width="0.2"/>
<path d="M66.0466 14.9102H119.052C120.083 14.9102 120.919 14.074 120.919 13.0434C120.919 12.0129 120.083 11.1766 119.052 11.1766H66.0466C65.016 11.1766 64.1798 12.0129 64.1798 13.0434C64.1798 14.074 65.016 14.9102 66.0466 14.9102Z" fill="#524EB7" stroke="#524EB7" stroke-width="0.2"/>
<mask id="path-5-outside-1_726_609" maskUnits="userSpaceOnUse" x="55.7085" y="10.2764" width="5" height="5" fill="black">
<rect fill="white" x="55.7085" y="10.2764" width="5" height="5"/>
<path d="M58.4753 14.81C58.0111 14.81 57.5541 14.6207 57.2259 14.2926C56.8978 13.9645 56.7085 13.5075 56.7085 13.0432C56.7085 12.5789 56.8978 12.1219 57.2259 11.7938C57.5541 11.4657 58.0111 11.2764 58.4753 11.2764C58.9396 11.2764 59.3939 11.4657 59.7247 11.7938C60.0529 12.1219 60.2422 12.5789 60.2422 13.0432C60.2422 13.5075 60.0529 13.9645 59.7247 14.2926C59.3966 14.6207 58.9396 14.81 58.4753 14.81Z"/>
</mask>
<path d="M58.4753 14.81C58.0111 14.81 57.5541 14.6207 57.2259 14.2926C56.8978 13.9645 56.7085 13.5075 56.7085 13.0432C56.7085 12.5789 56.8978 12.1219 57.2259 11.7938C57.5541 11.4657 58.0111 11.2764 58.4753 11.2764C58.9396 11.2764 59.3939 11.4657 59.7247 11.7938C60.0529 12.1219 60.2422 12.5789 60.2422 13.0432C60.2422 13.5075 60.0529 13.9645 59.7247 14.2926C59.3966 14.6207 58.9396 14.81 58.4753 14.81Z" fill="#524EB7"/>
<path d="M57.2259 14.2926L57.0845 14.434L57.0845 14.434L57.2259 14.2926ZM57.2259 11.7938L57.0845 11.6524L57.0845 11.6524L57.2259 11.7938ZM59.7247 11.7938L59.8662 11.6524L59.8656 11.6518L59.7247 11.7938ZM59.7247 14.2926L59.8662 14.434L59.8662 14.434L59.7247 14.2926ZM58.4753 14.61C58.0641 14.61 57.658 14.4418 57.3674 14.1512L57.0845 14.434C57.4502 14.7997 57.9581 15.01 58.4753 15.01V14.61ZM57.3674 14.1512C57.0767 13.8606 56.9085 13.4544 56.9085 13.0432H56.5085C56.5085 13.5605 56.7189 14.0684 57.0845 14.434L57.3674 14.1512ZM56.9085 13.0432C56.9085 12.632 57.0767 12.2258 57.3674 11.9352L57.0845 11.6524C56.7189 12.018 56.5085 12.5259 56.5085 13.0432H56.9085ZM57.3674 11.9352C57.658 11.6446 58.0641 11.4764 58.4753 11.4764V11.0764C57.958 11.0764 57.4502 11.2867 57.0845 11.6524L57.3674 11.9352ZM58.4753 11.4764C58.8861 11.4764 59.29 11.6443 59.5839 11.9358L59.8656 11.6518C59.4978 11.287 58.9931 11.0764 58.4753 11.0764V11.4764ZM59.5833 11.9352C59.8739 12.2258 60.0422 12.632 60.0422 13.0432H60.4422C60.4422 12.5259 60.2318 12.018 59.8662 11.6524L59.5833 11.9352ZM60.0422 13.0432C60.0422 13.4544 59.8739 13.8606 59.5833 14.1512L59.8662 14.434C60.2318 14.0684 60.4422 13.5605 60.4422 13.0432H60.0422ZM59.5833 14.1512C59.2927 14.4418 58.8866 14.61 58.4753 14.61V15.01C58.9926 15.01 59.5005 14.7997 59.8662 14.434L59.5833 14.1512Z" fill="#524EB7" mask="url(#path-5-outside-1_726_609)"/>
<path d="M13.0437 70.4392H108.956C109.987 70.4392 110.823 69.603 110.823 68.5724V33.237C110.823 32.2065 109.987 31.3702 108.956 31.3702H13.0437C12.0131 31.3702 11.1769 32.2064 11.1769 33.237V68.5724C11.1769 69.603 12.0131 70.4392 13.0437 70.4392ZM107.088 35.1034V66.7057H14.9091V35.1034H107.088Z" fill="#524EB7" stroke="#524EB7" stroke-width="0.2"/>
<path d="M23.1399 60.3431H98.8599C99.8904 60.3431 100.727 59.5069 100.727 58.4763C100.727 57.4457 99.8905 56.6095 98.8599 56.6095H23.1399C22.1093 56.6095 21.273 57.4457 21.273 58.4763C21.273 59.5069 22.1093 60.3431 23.1399 60.3431Z" fill="#524EB7" stroke="#524EB7" stroke-width="0.2"/>
<path d="M39.2542 42.2957L39.2542 42.2958L29.1581 57.44C29.158 57.44 29.158 57.44 29.158 57.44C28.5856 58.2981 28.8171 59.4563 29.6752 60.0287C29.9635 60.2212 30.2856 60.323 30.6088 60.3403V60.343H30.7088C31.3114 60.343 31.904 60.0517 32.2641 59.5116L32.1808 59.4561L32.2641 59.5115L41.806 45.1988H60.2257L74.8232 59.7963L74.8233 59.7964C75.5528 60.525 76.7338 60.525 77.4634 59.7964L77.4635 59.7963C78.192 59.0668 78.1921 57.8848 77.4634 57.1561L62.3192 42.0119C61.9687 41.6614 61.4943 41.4652 60.9991 41.4652H40.8068C40.1828 41.4652 39.6 41.7776 39.2542 42.2957Z" fill="#524EB7" stroke="#524EB7" stroke-width="0.2"/>
<path d="M91.2908 60.3432V60.3431C91.6804 60.3431 92.0728 60.2211 92.4087 59.9699L92.4088 59.9698C93.2336 59.3507 93.4013 58.1811 92.7822 57.3562C92.7822 57.3562 92.7822 57.3561 92.7821 57.3561L85.2102 47.2601C84.8577 46.7895 84.3043 46.5133 83.7167 46.5133H66.0486C65.018 46.5133 64.1817 47.3495 64.1817 48.3801C64.1817 49.4107 65.018 50.2469 66.0486 50.2469H82.7833L89.7964 59.5965L89.7964 59.5965C90.1631 60.0851 90.7233 60.3432 91.2908 60.3432Z" fill="#524EB7" stroke="#524EB7" stroke-width="0.2"/>
<path d="M15.5661 90.6316H40.8077C41.8382 90.6316 42.6745 89.7954 42.6745 88.7648V78.6687C42.6745 77.6381 41.8383 76.8019 40.8077 76.8019H15.5661C14.5356 76.8019 13.6993 77.6381 13.6993 78.6687V88.7648C13.6993 89.7954 14.5355 90.6316 15.5661 90.6316ZM38.9404 80.5355V86.8981H17.4338V80.5355H38.9404Z" fill="#524EB7" stroke="#524EB7" stroke-width="0.2"/>
<path d="M50.9035 80.5355H108.956C109.986 80.5355 110.823 79.6992 110.823 78.6687C110.823 77.6381 109.986 76.8019 108.956 76.8019H50.9035C49.873 76.8019 49.0367 77.6381 49.0367 78.6687C49.0367 79.6992 49.8729 80.5355 50.9035 80.5355Z" fill="#524EB7" stroke="#524EB7" stroke-width="0.2"/>
<path d="M50.9035 90.6316H108.956C109.986 90.6316 110.823 89.7954 110.823 88.7649C110.823 87.7343 109.986 86.898 108.956 86.898H50.9035C49.873 86.898 49.0367 87.7343 49.0367 88.7649C49.0367 89.7954 49.8729 90.6316 50.9035 90.6316Z" fill="#524EB7" stroke="#524EB7" stroke-width="0.2"/>
<path d="M15.5661 110.824H40.8077C41.8382 110.824 42.6745 109.988 42.6745 108.957V98.8608C42.6745 97.8302 41.8383 96.994 40.8077 96.994H15.5661C14.5356 96.994 13.6993 97.8302 13.6993 98.8608V108.957C13.6993 109.988 14.5355 110.824 15.5661 110.824ZM38.9404 100.728V107.09H17.4338V100.728H38.9404Z" fill="#524EB7" stroke="#524EB7" stroke-width="0.2"/>
<path d="M50.9035 100.728H108.956C109.986 100.728 110.823 99.8914 110.823 98.8608C110.823 97.8302 109.986 96.994 108.956 96.994H50.9035C49.873 96.994 49.0367 97.8302 49.0367 98.8608C49.0367 99.8914 49.8729 100.728 50.9035 100.728Z" fill="#524EB7" stroke="#524EB7" stroke-width="0.2"/>
<path d="M50.9035 110.824H108.956C109.986 110.824 110.823 109.988 110.823 108.957C110.823 107.926 109.986 107.09 108.956 107.09H50.9035C49.873 107.09 49.0367 107.926 49.0367 108.957C49.0367 109.988 49.8729 110.824 50.9035 110.824Z" fill="#524EB7" stroke="#524EB7" stroke-width="0.2"/>
<path d="M10.519 10.4193H10.419V10.5193V15.5674V15.6674H10.519H15.5671H15.6671V15.5674V10.5193V10.4193H15.5671H10.519Z" fill="#524EB7" stroke="#524EB7" stroke-width="0.2"/>
<path d="M18.0903 10.4193H17.9903V10.5193V15.5674V15.6674H18.0903H23.1384H23.2384V15.5674V10.5193V10.4193H23.1384H18.0903Z" fill="#524EB7" stroke="#524EB7" stroke-width="0.2"/>
<path d="M25.6646 10.4193H25.5646V10.5193V15.5674V15.6674H25.6646H30.7126H30.8126V15.5674V10.5193V10.4193H30.7126H25.6646Z" fill="#524EB7" stroke="#524EB7" stroke-width="0.2"/>
</svg>
