<svg width="120" height="120" viewBox="0 0 120 120" fill="none" xmlns="http://www.w3.org/2000/svg">
<path d="M19.4736 111.212C17.2422 113.792 14.1418 115.463 10.7599 115.909L11.2554 119.87C15.5268 119.34 19.4594 117.275 22.3201 114.058L27.562 119.3V119.301C28.1332 119.871 28.9914 120.043 29.7373 119.733C30.4832 119.424 30.9697 118.697 30.9697 117.889V99.7677L34.8481 106.878C36.1483 109.262 38.5357 110.856 41.2359 111.141C41.5237 111.17 41.8116 111.186 42.1003 111.186C44.5127 111.189 46.8066 110.137 48.3787 108.308C50.169 106.219 50.8017 103.376 50.0674 100.725C49.3331 98.0738 47.327 95.9617 44.7178 95.0911L43.1467 94.5662L113.014 87.7552C113.629 87.6946 114.183 87.3515 114.512 86.8266C114.84 86.3026 114.906 85.6548 114.691 85.0746L114.292 84.0008C112.762 79.8747 111.02 75.8485 109.101 71.9175C110.706 71.758 112.151 70.8784 113.028 69.5257C113.906 68.1729 114.12 66.4949 113.613 64.9648C113.343 64.136 113.004 63.326 112.7 62.5053L118.151 57.4746H118.152C118.561 57.0968 118.795 56.5647 118.795 56.0078C118.795 55.4508 118.561 54.9188 118.152 54.5409L112.705 49.5148C113.007 48.6941 113.342 47.884 113.613 47.0535V47.0526C114.143 45.4235 113.861 43.6385 112.855 42.251C111.849 40.8634 110.24 40.0409 108.526 40.0382H103.893L109.911 34.0175C111.172 32.7574 111.762 30.9759 111.502 29.2131C111.244 27.4504 110.166 25.9131 108.598 25.0683L106.74 24.0702H106.826V16.0836C106.826 15.5543 106.615 15.0463 106.241 14.672C105.867 14.2977 105.359 14.0874 104.829 14.0874H97.2579L95.8463 11.4602C95.0015 9.89176 93.4643 8.81427 91.7015 8.55602C89.9388 8.29758 88.1574 8.88752 86.8972 10.1467L80.8748 16.1675V10.3911C80.8721 8.67739 80.0496 7.06895 78.663 6.06264C77.2763 5.05743 75.4914 4.77492 73.8623 5.30427C73.0335 5.57162 72.2234 5.90313 71.4027 6.21415L66.3721 0.764642C65.9853 0.371631 65.4569 0.150635 64.9052 0.150635C64.3536 0.150635 63.8251 0.371642 63.4384 0.764642L58.4353 6.17833C57.611 5.87267 56.7867 5.56966 55.9498 5.29608C54.319 4.76584 52.533 5.04835 51.1448 6.05623C49.7572 7.06414 48.9356 8.67524 48.9356 10.3908V10.4942C46.0011 8.98903 43.0289 7.5517 39.9767 6.26021H39.9107C39.6567 6.15951 39.3849 6.11317 39.1122 6.12476H39.0062C38.7576 6.14614 38.5152 6.21387 38.2915 6.32438C38.2674 6.33864 38.2478 6.35646 38.2237 6.37072C38.1997 6.38497 38.1997 6.37072 38.1899 6.37072C38.1801 6.37072 38.1623 6.4028 38.1435 6.41438L38.1444 6.41349C37.9065 6.56053 37.7024 6.7557 37.5456 6.9865C37.5456 7.00433 37.5295 7.02215 37.5179 7.03997L37.5171 7.04087C37.3584 7.2886 37.256 7.56932 37.2176 7.86074L28.3746 82.133L27.1074 77.4883C26.4256 74.9905 24.5488 72.9943 22.0981 72.1602C19.6484 71.3261 16.9436 71.7628 14.8797 73.3259C12.8166 74.889 11.6634 77.3744 11.8026 79.9596C11.9425 82.544 13.3559 84.8913 15.5748 86.2236L21.7676 89.9424H3.02294C2.21554 89.9424 1.48835 90.429 1.17914 91.1749C0.869898 91.9208 1.04101 92.779 1.61134 93.3502L13.0396 104.779C9.3591 106.806 5.22959 107.882 1.02686 107.908V111.901C6.30343 111.881 11.4792 110.45 16.0161 107.755L19.4736 111.212ZM43.4531 98.8694C44.7952 99.315 45.8298 100.396 46.2156 101.756C46.6024 103.117 46.2904 104.58 45.3841 105.664C44.4769 106.749 43.0911 107.315 41.684 107.175C40.2777 107.035 39.031 106.208 38.3546 104.966L33.2046 95.5319L33.3766 95.5141L43.4531 98.8694ZM111.107 53.4633L113.862 56.0066L111.107 58.5499C110.727 57.7033 110.342 56.8593 109.929 56.0287C110.35 55.1839 110.724 54.3213 111.107 53.4631V53.4633ZM109.63 67.4207C109.375 67.7763 108.963 67.9866 108.525 67.984H107.082C106.419 66.7283 105.757 65.4726 105.053 64.2411C105.929 62.9739 106.77 61.6881 107.552 60.3726H107.554C108.408 62.2708 109.164 64.2117 109.819 66.1874C109.962 66.6044 109.891 67.0661 109.63 67.4207ZM108.525 44.0299C108.963 44.0299 109.373 44.2393 109.63 44.5931C109.886 44.946 109.958 45.4014 109.823 45.8167C108.128 50.973 105.764 55.8841 102.793 60.4263C99.6959 55.384 96.2738 50.5496 92.5488 45.9522C94.7705 45.7427 96.9279 45.0886 98.8922 44.0299L108.525 44.0299ZM106.705 28.5834H106.706C107.162 28.8302 107.476 29.2785 107.551 29.7927C107.627 30.3069 107.455 30.8264 107.089 31.1945L102.847 35.4463C103.388 33.6996 103.582 31.8638 103.417 30.0422C103.298 28.8516 103.098 27.6691 102.818 26.5051L106.705 28.5834ZM102.833 18.0793V21.9638L100.859 20.9015C100.685 20.5424 100.535 20.1726 100.344 19.8197L99.407 18.0792L102.833 18.0793ZM82.6532 20.0336L89.7174 12.9693C90.0855 12.604 90.6024 12.4329 91.1148 12.506C91.6299 12.579 92.079 12.8936 92.325 13.3525L96.8261 21.7126C98.2769 24.3994 99.1654 27.3528 99.439 30.3944C99.7714 33.4405 98.6227 36.4614 96.3511 38.5181C94.2079 40.4804 91.3223 41.4223 88.4341 41.1015C85.4834 37.7837 82.3768 34.6138 79.1136 31.5919C78.299 27.39 79.6251 23.0582 82.6533 20.0335L82.6532 20.0336ZM110.034 84.026L40.3178 90.8229C51.9752 84.1588 60.7155 73.3722 64.8174 60.5856C70.634 41.6751 62.398 27.0495 53.9202 17.7826V17.7817C79.5537 32.9126 99.3241 56.2547 110.033 84.0258L110.034 84.026ZM75.0859 9.09672C75.5029 8.9577 75.9601 9.0281 76.3166 9.28565C76.6721 9.5423 76.8833 9.95491 76.8825 10.3943V16.6181C74.4763 14.6958 71.9419 12.9384 69.2969 11.3602C71.1871 10.5082 73.1191 9.75253 75.0859 9.09663V9.09672ZM64.9053 5.05436L67.4485 7.80889C66.6019 8.18853 65.7553 8.56726 64.9256 8.98076C64.0888 8.56548 63.2484 8.15465 62.3946 7.77323L64.9053 5.05436ZM52.9281 10.3907C52.929 9.95226 53.1402 9.54054 53.4958 9.28389C53.8513 9.02812 54.3085 8.95861 54.7247 9.09674C62.8199 11.747 70.2904 16.0175 76.6828 21.647C75.7124 23.5906 75.1287 25.7044 74.962 27.8708C68.1403 22.0631 60.7596 16.9451 52.9281 12.5918V10.3907ZM40.8012 11.5127V11.5118C45.5056 14.7796 49.7317 18.6865 53.3577 23.1201C62.3887 34.3344 64.9596 46.5452 61.0012 59.4121C55.0936 78.6078 38.7069 87.6486 31.6719 90.7399L31.376 90.64L40.8012 11.5127ZM21.8729 107.967L19.4196 105.513C21.5173 103.945 23.4637 102.185 25.2343 100.255C24.4376 102.955 23.3085 105.545 21.8729 107.967ZM26.9775 113.071L24.7817 110.875C25.606 109.62 26.3403 108.307 26.9775 106.946V113.071ZM17.623 82.7998C16.5411 82.1492 15.8523 81.005 15.7854 79.7439C15.7177 78.4829 16.28 77.2718 17.2861 76.5089C18.2931 75.747 19.612 75.534 20.8072 75.9403C22.0024 76.3467 22.9175 77.3198 23.2508 78.5381L25.7397 87.6707L17.623 82.7998ZM7.84162 93.9349H25.2407C22.7999 97.2598 19.8635 100.192 16.5359 102.628L7.84162 93.9349Z" fill="#524EB7"/>
</svg>
