<svg width="120" height="120" viewBox="0 0 120 120" fill="none" xmlns="http://www.w3.org/2000/svg">
<g clip-path="url(#clip0_726_660)">
<path d="M119.797 31.5258V31.3838V31.0987V30.8137C119.797 30.6717 119.797 30.6717 119.655 30.5287C119.655 30.3867 119.513 30.3867 119.513 30.2437C119.513 30.2437 119.513 30.1016 119.371 30.1016L111.255 16.5765V3.05131C111.255 1.48515 109.974 0.204102 108.408 0.204102H11.5941C10.0279 0.204102 8.74689 1.48523 8.74689 3.05131V16.5765L0.631122 30.1016C0.631122 30.1016 0.631121 30.2437 0.489107 30.2437C0.489107 30.3857 0.347093 30.3857 0.347093 30.5287C0.347093 30.6707 0.347093 30.6707 0.205078 30.8137V31.0987V31.3838V31.5258V31.8108V32.0958C0.205078 38.3605 3.62228 43.9128 8.74796 46.9021L8.74597 99.8648C8.74597 101.431 10.0271 102.712 11.5932 102.712H48.8949L45.0505 114.102H40.069C38.5029 114.102 37.2218 115.383 37.2218 116.949C37.2218 118.515 38.5029 119.796 40.069 119.796H79.9334C81.4996 119.796 82.7806 118.515 82.7806 116.949C82.7806 115.383 81.4995 114.102 79.9334 114.102H74.808L70.9637 102.712H108.408C109.974 102.712 111.255 101.431 111.255 99.8648L111.256 47.0445C116.381 44.0541 119.799 38.5016 119.799 32.2382V31.9532C119.798 31.8112 119.798 31.6681 119.798 31.5261L119.797 31.5258ZM14.4407 5.89865H105.559V14.4415H14.4407V5.89865ZM13.1596 20.1359H106.699L111.824 28.6788H8.03418L13.1596 20.1359ZM85.3427 34.3732C84.3456 39.6408 79.7901 43.627 74.2376 43.627C68.685 43.627 63.9867 39.6405 63.1325 34.3732H85.3427ZM56.8681 34.3732C55.871 39.6408 51.3155 43.627 45.763 43.627C40.2104 43.627 35.5121 39.6405 34.6579 34.3732H56.8681ZM6.18333 34.3732H28.5364C27.5393 39.6408 22.9838 43.627 17.4313 43.627C11.8777 43.628 7.03731 39.6415 6.18333 34.3732ZM51.1732 114.102L55.0175 102.712H65.1265L68.9708 114.102H51.1732ZM105.56 97.0175H14.441V88.4747H105.56V97.0175ZM105.56 82.7803H14.441V49.0379C15.438 49.1799 16.2921 49.3229 17.2882 49.3229C23.2678 49.3229 28.3932 46.3326 31.5254 41.6353C34.6576 46.1917 39.7831 49.3229 45.7627 49.3229C51.7424 49.3229 56.8678 46.3326 60 41.6353C63.1322 46.1917 68.2577 49.3229 74.2373 49.3229C80.217 49.3229 85.3424 46.3326 88.4746 41.6353C91.6068 46.1917 96.7322 49.3229 102.712 49.3229C103.709 49.3229 104.563 49.1809 105.559 49.0379L105.56 82.7803ZM102.712 43.6277C97.1599 43.6277 92.4615 39.6413 91.6073 34.374H113.96C112.963 39.6415 108.265 43.6277 102.712 43.6277Z" fill="#524EB7"/>
</g>
<defs>
<clipPath id="clip0_726_660">
<rect width="120" height="120" fill="white"/>
</clipPath>
</defs>
</svg>
