<svg xmlns="http://www.w3.org/2000/svg" fill="none" viewBox="0 0 1920 1519"><g stroke-linecap="round" opacity=".5"><path stroke="url(#a)" stroke-width="3" d="M1965.08 581.215c-84.07 93.927-289.65 46.53-426.36-117.842C1402 299.001 1108.79 453.65 1030 492.999c-78.794 39.349-200.684 6.935-291.001-123-90.317-129.936-267.207-101.355-437.835-97.016-170.628 4.34-466.475-70.845-530.514-62.814"/><path stroke="url(#b)" stroke-width="4" d="M-100.725 74.181c37.35 120.398 440.508-61.52 523.105 199.582 82.597 261.102 325.555 187.476 460.117 85.09 134.563-102.387 499.573 283.234 586.723 133.792 87.16-149.443 366.54 95.576 579.8 157.558"/><path stroke="url(#c)" stroke-width="3" d="M2068.37 390.154c-16.21 135.293-227.61 220.787-450.58 160.013-222.97-60.773-386.7 257.953-432.07 341.648-45.37 83.694-173.39 130.565-333.922 71.518-160.532-59.051-299.436 75.927-447.825 185.567-148.39 109.64-456.959 226.5-508.682 273.31"/><path stroke="url(#d)" stroke-width="4" d="M-75.136 1222.05c107.72 83.45 351.897-327.594 586.92-147.62 235.023 179.98 404.496-35.85 460.16-209.938 55.666-174.088 617.946-58.958 602.456-245.319-15.48-186.36 383.81-142.636 611.07-219.979"/></g><defs><linearGradient id="a" x1="-187.229" x2="1956.34" y1="-168.889" y2="812.385" gradientUnits="userSpaceOnUse"><stop stop-color="#1F94F3"/><stop offset=".17" stop-color="#795549"/><stop offset=".375" stop-color="#4AAE4E"/><stop offset=".518" stop-color="#F34334"/><stop offset=".67" stop-color="#9A26AF"/><stop offset=".829" stop-color="#01BBD4"/><stop offset="1" stop-color="#FD5621"/></linearGradient><linearGradient id="b" x1="2168.5" x2="-189" y1="288.011" y2="288.011" gradientUnits="userSpaceOnUse"><stop stop-color="#F34334"/><stop offset=".17" stop-color="#FFE93B"/><stop offset=".518" stop-color="#5F7C8A"/><stop offset=".829" stop-color="#9A26AF"/><stop offset="1" stop-color="#019587"/></linearGradient><linearGradient id="c" x1="-302.438" x2="2203.97" y1="1060.46" y2="600.255" gradientUnits="userSpaceOnUse"><stop stop-color="#1F94F3"/><stop offset=".17" stop-color="#795549"/><stop offset=".375" stop-color="#4AAE4E"/><stop offset=".518" stop-color="#F34334"/><stop offset=".67" stop-color="#9A26AF"/><stop offset=".829" stop-color="#01BBD4"/><stop offset="1" stop-color="#FD5621"/></linearGradient><linearGradient id="d" x1="2066.69" x2="-20.719" y1="4.417" y2="1466.12" gradientUnits="userSpaceOnUse"><stop stop-color="#F34334"/><stop offset=".17" stop-color="#FFE93B"/><stop offset=".518" stop-color="#5F7C8A"/><stop offset=".829" stop-color="#9A26AF"/><stop offset="1" stop-color="#019587"/></linearGradient></defs></svg>