<svg width="120" height="120" viewBox="0 0 120 120" fill="none" xmlns="http://www.w3.org/2000/svg">
<path d="M92.3933 7.29932H88.65C87.6206 7.29932 86.7783 8.14156 86.7783 9.17097C86.7783 10.2004 87.6206 11.0426 88.65 11.0426H92.3933C93.4227 11.0426 94.265 10.2004 94.265 9.17097C94.265 8.14156 93.4227 7.29932 92.3933 7.29932Z" fill="#524EB7"/>
<path d="M81.1638 7.29932H77.4205C76.3911 7.29932 75.5488 8.14156 75.5488 9.17097C75.5488 10.2004 76.3911 11.0426 77.4205 11.0426H81.1638C82.1932 11.0426 83.0355 10.2004 83.0355 9.17097C83.0355 8.14156 82.1932 7.29932 81.1638 7.29932Z" fill="#524EB7"/>
<path d="M105.964 69.1572C104.934 69.1572 104.092 69.9994 104.092 71.0288V91.5234H16.124V71.0288C16.124 69.9994 15.2817 69.1572 14.2523 69.1572C13.2229 69.1572 12.3807 69.9994 12.3807 71.0288V91.5234H8.63736V43.0485H14.1586C15.1881 43.0485 16.0303 42.2062 16.0303 41.1768C16.0303 40.1474 15.1881 39.3052 14.1586 39.3052H8.63736C6.57854 39.3052 4.89404 40.9897 4.89404 43.0485V106.405C4.89404 108.463 6.57854 110.148 8.63736 110.148H49.8138V116.044H41.2042C40.1748 116.044 39.3325 116.886 39.3325 117.915C39.3325 118.945 40.1748 119.787 41.2042 119.787H78.9176C79.947 119.787 80.7892 118.945 80.7892 117.915C80.7892 116.886 79.947 116.044 78.9176 116.044H70.4016V110.148H111.578C113.637 110.148 115.321 108.463 115.321 106.405V43.0485C115.321 40.9897 113.637 39.3052 111.578 39.3052H105.869C104.84 39.3052 103.998 40.1474 103.998 41.1768C103.998 42.2062 104.84 43.0485 105.869 43.0485H111.578V91.5234H107.835V71.0288C107.835 69.9994 106.993 69.1572 105.963 69.1572H105.964ZM66.6588 115.762H53.5571V110.148H66.6588V115.762ZM111.579 95.2679V106.498H8.63736V95.2679H111.579Z" fill="#524EB7"/>
<path d="M102.22 102.755H105.964C106.993 102.755 107.835 101.913 107.835 100.883C107.835 99.854 106.993 99.0117 105.964 99.0117H102.22C101.191 99.0117 100.349 99.854 100.349 100.883C100.349 101.913 101.191 102.755 102.22 102.755Z" fill="#524EB7"/>
<path d="M97.5403 0H22.674C20.6152 0 18.9307 1.68449 18.9307 3.74332V83.2898C18.9307 85.3487 20.6152 87.0332 22.674 87.0332H97.5403C99.5991 87.0332 101.284 85.3487 101.284 83.2898V3.74332C101.284 1.68449 99.5991 0 97.5403 0ZM22.674 3.74332H97.5403V14.9733H22.674V3.74332ZM22.674 83.2898V18.7166H97.5403V83.2898H22.674Z" fill="#524EB7"/>
<path d="M67.6874 60.173C66.9387 59.7051 65.9093 59.8923 65.3477 60.5473C63.9439 62.1382 61.885 62.7933 58.2354 62.7933C54.5858 62.7933 52.5267 62.1382 51.1231 60.5473C50.5616 59.8923 49.5322 59.7051 48.7834 60.173C42.5135 63.9163 39.0508 69.8119 39.0508 76.7373C39.0508 77.7667 39.893 78.6089 40.9224 78.6089H75.5492C76.5786 78.6089 77.4208 77.7667 77.4208 76.7373C77.4208 69.8121 73.9582 63.9163 67.6882 60.173H67.6874ZM42.8874 74.8656C43.3553 70.4673 45.7883 66.5366 49.5316 64.1037C52.152 66.1625 55.5209 66.5369 58.235 66.5369C60.949 66.5369 64.3179 66.2561 66.9383 64.1037C70.5879 66.5369 73.0213 70.4673 73.5826 74.8656H42.8874Z" fill="#524EB7"/>
<path d="M49.7197 55.0267C53.7437 59.7059 60.856 60.2674 65.6288 56.2433C70.4016 52.2192 70.8694 45.107 66.8454 40.3342C62.8214 35.6551 55.7091 35.0936 50.9363 39.1176C47.2867 42.206 46.07 47.3529 47.8479 51.7512L37.5538 58.2085C36.7116 58.77 36.4308 59.893 36.9923 60.8289C37.5538 61.7647 38.6768 61.9519 39.6126 61.3904L49.7197 55.0267ZM58.2356 40.2406C62.3533 40.2406 65.7223 43.6096 65.7223 47.7273C65.7223 51.8449 62.3533 55.2139 58.2356 55.2139C54.118 55.2139 50.749 51.8449 50.749 47.7273C50.749 43.6096 54.118 40.2406 58.2356 40.2406Z" fill="#524EB7"/>
</svg>
