<svg width="120" height="120" viewBox="0 0 120 120" fill="none" xmlns="http://www.w3.org/2000/svg">
<path d="M103.216 32.5545C103.216 33.2201 102.952 33.8576 102.481 34.3281C102.011 34.7986 101.373 35.0627 100.708 35.0627H45.795C44.4106 35.0627 43.2877 33.9398 43.2877 32.5546C43.2877 31.1702 44.4106 30.0473 45.795 30.0473H100.708C101.373 30.0473 102.011 30.3114 102.481 30.7819C102.952 31.2524 103.216 31.89 103.216 32.5546V32.5545ZM45.7948 48.716H62.3192C63.7045 48.716 64.8264 47.5931 64.8264 46.2079C64.8264 44.8235 63.7044 43.7007 62.3192 43.7007H45.7948C44.4104 43.7007 43.2876 44.8236 43.2876 46.2079C43.2876 47.5932 44.4105 48.716 45.7948 48.716ZM45.7948 62.3316L62.3192 62.3307C63.7045 62.3307 64.8264 61.2087 64.8264 59.8234C64.8264 58.4391 63.7044 57.3162 62.3192 57.3162H45.7948C44.4104 57.3162 43.2876 58.4391 43.2876 59.8234C43.2876 61.2087 44.4105 62.3307 45.7948 62.3307V62.3316ZM45.7948 75.9471L62.3192 75.9462C63.7045 75.9462 64.8264 74.8242 64.8264 73.439C64.8264 72.0546 63.7044 70.9317 62.3192 70.9317H45.7948C44.4104 70.9317 43.2876 72.0546 43.2876 73.439C43.2876 74.8242 44.4105 75.9462 45.7948 75.9462V75.9471ZM100.708 84.5472H45.7948C44.4104 84.5472 43.2876 85.6701 43.2876 87.0545C43.2876 88.4397 44.4105 89.5617 45.7948 89.5617H100.708C102.094 89.5617 103.215 88.4397 103.215 87.0545C103.215 85.6701 102.093 84.5472 100.708 84.5472ZM103.215 46.1965V73.4159C103.215 74.0805 102.951 74.7181 102.481 75.1886C102.011 75.6591 101.373 75.9232 100.708 75.9232H76.2985C74.9132 75.9232 73.7913 74.8003 73.7913 73.4159V46.21C73.7913 44.8256 74.9133 43.7027 76.2985 43.7027H100.708C101.373 43.7027 102.011 43.9668 102.481 44.4373C102.951 44.9078 103.215 45.5454 103.215 46.21V46.1965ZM98.201 48.7037H78.8055V70.9073H98.201V48.7037ZM0.0450197 91.0306V42.1351C0.0450197 40.7507 1.16792 39.6278 2.55226 39.6278C3.93752 39.6278 5.06039 40.7507 5.06039 42.1351V91.0306C5.18807 94.7797 7.26246 98.1903 10.5323 100.029C13.802 101.868 17.7945 101.868 21.0643 100.029C24.3341 98.1903 26.4085 94.7797 26.5361 91.0306V15.7194C26.5361 14.335 27.659 13.2122 29.0434 13.2122H117.431C118.097 13.2122 118.734 13.4763 119.205 13.9468C119.675 14.4173 119.939 15.0548 119.939 15.7194V93.2627C119.942 96.8562 118.515 100.303 115.972 102.841C113.429 105.379 109.979 106.801 106.386 106.791H15.804C11.6246 106.787 7.6185 105.126 4.66327 102.172C1.70917 99.2166 0.0475274 95.2103 0.0439453 91.0318L0.0450197 91.0306ZM27.3137 101.775H106.386C108.641 101.775 110.803 100.88 112.397 99.2853C113.991 97.691 114.887 95.5293 114.887 93.2746V18.2253H31.5627V91.0313C31.5671 95.0208 30.0515 98.8626 27.3246 101.776L27.3137 101.775ZM13.2967 42.6616V90.993C13.2967 92.3774 14.4196 93.5002 15.8049 93.5002C17.1893 93.5002 18.3121 92.3773 18.3121 90.993V42.6616C18.3121 41.2772 17.1892 40.1544 15.8049 40.1544C14.4196 40.1544 13.2967 41.2773 13.2967 42.6616Z" fill="#524EB7"/>
</svg>
