<svg width="1920" height="924" viewBox="0 0 1920 924" fill="none" xmlns="http://www.w3.org/2000/svg">
<path d="M1941 50.428C1915.42 173.864 1713.82 236.043 1513.08 162.487C1312.33 88.931 1136.34 369.848 1087.94 443.428C1039.54 517.007 917.842 550.146 774.511 483.088C631.181 416.031 492.526 529.529 347.122 618.918C201.717 708.307 -91.9054 791.757 -143.264 830.843" stroke="url(#paint0_linear_726_2316)" stroke-width="3" stroke-linecap="round"/>
<path d="M-100.262 648.668C-7.53088 734.059 249.873 374.374 452.357 558.756C654.84 743.139 828.032 557.521 893.033 401.429C958.035 245.337 1467.28 395.684 1467.66 222.683C1468.04 49.6822 1771.44 365.419 1987 312" stroke="url(#paint1_linear_726_2316)" stroke-width="4" stroke-linecap="round"/>
<defs>
<linearGradient id="paint0_linear_726_2316" x1="-297.075" y1="481.843" x2="2049.46" y2="254.759" gradientUnits="userSpaceOnUse">
<stop stop-color="#1F94F3"/>
<stop offset="0.16984" stop-color="#795549"/>
<stop offset="0.375429" stop-color="#4AAE4E"/>
<stop offset="0.517746" stop-color="#F34334"/>
<stop offset="0.67022" stop-color="#9A26AF"/>
<stop offset="0.829093" stop-color="#01BBD4"/>
<stop offset="1" stop-color="#FD5621"/>
</linearGradient>
<linearGradient id="paint1_linear_726_2316" x1="1969.79" y1="-305.267" x2="-69.2965" y2="877.921" gradientUnits="userSpaceOnUse">
<stop stop-color="#F34334"/>
<stop offset="0.16984" stop-color="#FFE93B"/>
<stop offset="0.517746" stop-color="#5F7C8A"/>
<stop offset="0.829093" stop-color="#9A26AF"/>
<stop offset="1" stop-color="#019587"/>
</linearGradient>
</defs>
</svg>
