<svg width="1920" height="993" viewBox="0 0 1920 993" fill="none" xmlns="http://www.w3.org/2000/svg">
<path d="M-161.447 87.428C-135.868 210.864 65.7269 273.043 266.474 199.487C467.221 125.931 643.21 406.848 691.612 480.428C740.015 554.007 861.71 587.146 1005.04 520.088C1148.37 453.031 1287.03 566.529 1432.43 655.918C1577.83 745.307 1871.46 828.757 1922.82 867.843" stroke="url(#paint0_linear_726_1206)" stroke-width="3" stroke-linecap="round"/>
<path d="M-105.116 904.695C-79.5367 781.258 122.058 719.08 322.805 792.636C523.552 866.192 699.541 585.275 747.943 511.695C796.346 438.115 918.041 404.977 1061.37 472.034C1204.7 539.091 1343.36 425.593 1488.76 336.204C1634.17 246.815 1927.79 163.365 1979.15 124.279" stroke="url(#paint1_linear_726_1206)" stroke-width="3" stroke-linecap="round"/>
<path d="M1936.15 776.668C1843.41 862.059 1586.01 502.374 1383.53 686.756C1181.04 871.139 1007.85 685.521 942.85 529.429C877.849 373.337 368.605 523.684 368.223 350.683C367.84 177.682 3.22022 249.39 -212.34 195.971" stroke="url(#paint2_linear_726_1206)" stroke-width="4" stroke-linecap="round"/>
<path d="M1936.15 306.455C1843.41 221.063 1586.01 580.749 1383.53 396.366C1181.04 211.984 1007.85 397.602 942.85 553.694C877.849 709.786 368.605 559.439 368.223 732.44C367.84 905.44 3.22022 833.733 -212.34 887.151" stroke="url(#paint3_linear_726_1206)" stroke-width="4" stroke-linecap="round"/>
<defs>
<linearGradient id="paint0_linear_726_1206" x1="2076.63" y1="518.843" x2="-269.911" y2="291.759" gradientUnits="userSpaceOnUse">
<stop stop-color="#1F94F3"/>
<stop offset="0.16984" stop-color="#795549"/>
<stop offset="0.375429" stop-color="#4AAE4E"/>
<stop offset="0.517746" stop-color="#F34334"/>
<stop offset="0.67022" stop-color="#9A26AF"/>
<stop offset="0.829093" stop-color="#01BBD4"/>
<stop offset="1" stop-color="#FD5621"/>
</linearGradient>
<linearGradient id="paint1_linear_726_1206" x1="2132.96" y1="473.28" x2="-213.58" y2="700.364" gradientUnits="userSpaceOnUse">
<stop stop-color="#1F94F3"/>
<stop offset="0.16984" stop-color="#795549"/>
<stop offset="0.375429" stop-color="#4AAE4E"/>
<stop offset="0.517746" stop-color="#F34334"/>
<stop offset="0.67022" stop-color="#9A26AF"/>
<stop offset="0.829093" stop-color="#01BBD4"/>
<stop offset="1" stop-color="#FD5621"/>
</linearGradient>
<linearGradient id="paint2_linear_726_1206" x1="-133.905" y1="-177.267" x2="1905.18" y2="1005.92" gradientUnits="userSpaceOnUse">
<stop stop-color="#F34334"/>
<stop offset="0.16984" stop-color="#FFE93B"/>
<stop offset="0.517746" stop-color="#5F7C8A"/>
<stop offset="0.829093" stop-color="#9A26AF"/>
<stop offset="1" stop-color="#019587"/>
</linearGradient>
<linearGradient id="paint3_linear_726_1206" x1="-133.905" y1="1260.39" x2="1905.18" y2="77.2015" gradientUnits="userSpaceOnUse">
<stop stop-color="#F34334"/>
<stop offset="0.16984" stop-color="#FFE93B"/>
<stop offset="0.517746" stop-color="#5F7C8A"/>
<stop offset="0.829093" stop-color="#9A26AF"/>
<stop offset="1" stop-color="#019587"/>
</linearGradient>
</defs>
</svg>
